<?xml version="1.0" standalone="no"?>
<!DOCTYPE svg PUBLIC "-//W3C//DTD SVG 20010904//EN"
 "http://www.w3.org/TR/2001/REC-SVG-20010904/DTD/svg10.dtd">
<svg version="1.0" xmlns="http://www.w3.org/2000/svg"
 width="929.000000pt" height="1280.000000pt" viewBox="0 0 929.000000 1280.000000"
 preserveAspectRatio="xMidYMid meet">
<metadata>
Created by potrace 1.15, written by Peter Selinger 2001-2017
</metadata>
<g transform="translate(0.000000,1280.000000) scale(0.100000,-0.100000)"
fill="#fff" stroke="none">
<path d="M3656 12778 c-3 -13 -12 -70 -21 -128 -27 -178 -93 -534 -146 -783
-292 -1382 -742 -2500 -1415 -3517 -200 -303 -375 -541 -825 -1122 -481 -621
-685 -929 -867 -1308 -199 -415 -303 -784 -363 -1295 -20 -168 -18 -607 5
-780 113 -889 508 -1673 1233 -2450 464 -497 1147 -1012 1698 -1280 142 -69
275 -120 275 -105 0 5 -5 12 -10 15 -19 12 -198 232 -310 381 -357 474 -653
1004 -801 1433 -147 426 -187 771 -134 1138 59 400 180 703 426 1063 76 111
161 223 615 812 268 346 392 519 570 788 470 714 838 1482 1130 2358 42 125
77 229 79 231 6 6 405 -333 705 -598 210 -186 658 -631 797 -791 347 -401 589
-779 772 -1207 140 -329 280 -813 335 -1163 85 -539 0 -1300 -245 -2200 -173
-632 -409 -1304 -695 -1974 -35 -82 -64 -151 -64 -153 0 -6 42 24 185 131
1364 1017 2232 2215 2558 3531 310 1248 123 2585 -549 3928 -467 933 -1096
1782 -1983 2680 -818 828 -1702 1545 -2888 2345 -61 41 -63 42 -67 20z"/>
</g>
</svg>
